<?xml version="1.0"?>
<svg xmlns="http://www.w3.org/2000/svg" id="outline" viewBox="0 0 512 512" width="512" height="512"><path d="M200,184h8a24.0275,24.0275,0,0,0,24-24v-8H216v8a8.00917,8.00917,0,0,1-8,8h-8Z"/><circle cx="192" cy="136" r="8"/><circle cx="240" cy="136" r="8"/><path d="M83.2002,422.3999,104,437.99976V488a7.99977,7.99977,0,0,0,8,8H368a7.99877,7.99877,0,0,0,5.65674-2.34326l56-56A7.99877,7.99877,0,0,0,432,432V304a7.99979,7.99979,0,0,0-10.73389-7.51855L352,321.66931v-1.96277a64.32286,64.32286,0,0,0-31.07227-54.87939L269.46,233.94629l-16.37634-21.83472A63.94856,63.94856,0,0,0,280,160V105.86945A23.94309,23.94309,0,0,0,288,88a7.99583,7.99583,0,0,0-.84473-3.57764l-7.20581-14.4115A56.05758,56.05758,0,0,0,224,16H208a56.05768,56.05768,0,0,0-55.94952,54.01086l-7.20575,14.4115A7.99583,7.99583,0,0,0,144,88a23.94309,23.94309,0,0,0,8,17.86945V160a63.94878,63.94878,0,0,0,26.9165,52.11163l-16.376,21.83466-51.46826,30.88086A64.32286,64.32286,0,0,0,80,319.70654V416A7.99927,7.99927,0,0,0,83.2002,422.3999ZM120,449.99976,160.00031,480H120ZM240,480H186.6665l-6.43927-4.82947,16.81195-28.0199,32.33143-6.46655L240,451.31348Zm-2.34326-53.65674a8.001,8.001,0,0,0-7.22559-2.188l-35.80176,7.16065L191.31348,428l46.34326-46.34326A7.99877,7.99877,0,0,0,240,376V322.05664l88,20.30725v78.63025L276.36987,480H256V448a7.99877,7.99877,0,0,0-2.34326-5.65674Zm-29.812-144.77441a7.99934,7.99934,0,0,0-.68946-5.14649l-5.78857-11.57763L216,245.3335l14.6333,19.51123-5.78857,11.57763a7.99934,7.99934,0,0,0-.68946,5.14649l4.62378,23.11914A7.93529,7.93529,0,0,0,224,312v60.68652l-8,8-23.31592-23.31591ZM416,428.68652,364.68652,480H297.63013l44.39038-50.73193A7.99842,7.99842,0,0,0,344,424V341.60358l72-26.18219Zm-80-108.98v7.781l-.5083.18481-89.95032-20.7575-5.15857-25.7923,6.1919-12.38379,18.6654-18.66541,47.45569,28.47352A48.243,48.243,0,0,1,336,319.70654Zm-82.56281-80.45721L240.86554,251.821,224,229.33368v-5.8515a63.4571,63.4571,0,0,0,14.83142-3.70728ZM160.15576,89.57666,164.94434,80H267.05566l4.78858,9.57666A8.01424,8.01424,0,0,1,264,96H168A8.01424,8.01424,0,0,1,160.15576,89.57666ZM263.19629,64H240V35.35028A40.14562,40.14562,0,0,1,263.19629,64ZM192,35.35028V56h16V32h16V64H168.80371A40.14548,40.14548,0,0,1,192,35.35028ZM168,160V112h96v48a48,48,0,0,1-96,0Zm40,63.48218v5.8515L191.13446,251.821l-12.57165-12.57165,14.60577-19.47443A63.4571,63.4571,0,0,0,208,223.48218ZM96,319.70654a48.24234,48.24234,0,0,1,23.30469-41.15966l47.45538-28.47333,18.66522,18.66522,6.1919,12.38379-15.46192,77.30859a7.99927,7.99927,0,0,0,2.188,7.22559L204.68652,392,180,416.68652l-28-28V336H136v56a7.99877,7.99877,0,0,0,2.34326,5.65674l43.58319,43.58319-14.56756,24.2793L96,412Z"/></svg>
