<?xml version="1.0" encoding="iso-8859-1"?>
<!-- Generator: Adobe Illustrator 19.0.0, SVG Export Plug-In . SVG Version: 6.00 Build 0)  -->
<svg version="1.1" id="Capa_1" xmlns="http://www.w3.org/2000/svg" xmlns:xlink="http://www.w3.org/1999/xlink" x="0px" y="0px"
	 viewBox="0 0 480 480" style="enable-background:new 0 0 480 480;" xml:space="preserve">
<g>
	<g>
		<path d="M456.132,7.998c-10.305-0.029-19.472,6.54-22.756,16.308l-161.76,7.696c-4.268,0.205-7.621,3.727-7.616,8v56h-76
			c-41.974,0-76,34.026-76,76s34.026,76,76,76h160c33.137,0,60,26.863,60,60s-26.863,60-60,60H216v-56
			c0.005-4.273-3.348-7.795-7.616-8L48,296.37v-0.368c0-13.255-10.745-24-24-24s-24,10.745-24,24v152c0,13.255,10.745,24,24,24
			c10.249-0.046,19.338-6.596,22.624-16.304l161.76-7.696c4.268-0.205,7.621-3.727,7.616-8v-56h132c41.974,0,76-34.026,76-76
			s-34.026-76-76-76H188c-33.137,0-60-26.863-60-60s26.863-60,60-60h76v56c-0.005,4.273,3.348,7.795,7.616,8L432,183.634v0.368
			c0,13.255,10.745,24,24,24s24-10.745,24-24v-152C480.038,18.783,469.352,8.036,456.132,7.998z M32,448.002c0,4.418-3.582,8-8,8
			s-8-3.582-8-8v-152c0-4.418,3.582-8,8-8s8,3.582,8,8V448.002z M200,432.37l-152,7.24v-127.2l152,7.224V432.37z M432,167.634
			l-152-7.24V47.634l152-7.2V167.634z M464,184.002c0,4.418-3.582,8-8,8s-8-3.582-8-8v-152c0-4.418,3.582-8,8-8s8,3.582,8,8V184.002
			z"/>
	</g>
</g>
<g>
</g>
<g>
</g>
<g>
</g>
<g>
</g>
<g>
</g>
<g>
</g>
<g>
</g>
<g>
</g>
<g>
</g>
<g>
</g>
<g>
</g>
<g>
</g>
<g>
</g>
<g>
</g>
<g>
</g>
</svg>
