<?xml version="1.0"?>
<svg xmlns="http://www.w3.org/2000/svg" width="512" height="512" viewBox="0 0 128 128"><g><path d="M104.74,46.079a43.411,43.411,0,0,1,2.086,6.979,1.752,1.752,0,0,0,1.711,1.392,1.774,1.774,0,0,0,.36-.037,1.75,1.75,0,0,0,1.355-2.072A47.022,47.022,0,0,0,108,44.8a1.75,1.75,0,0,0-3.258,1.281Z"/><path d="M121.5,58.072h-4.411A53.238,53.238,0,0,0,77.482,10.511,7.757,7.757,0,0,0,70,4.75H58a7.756,7.756,0,0,0-7.483,5.767,53.413,53.413,0,0,0-39.61,47.555H6.5a1.749,1.749,0,0,0-1.75,1.75v9a1.75,1.75,0,0,0,1.75,1.75h4.25V75a46.957,46.957,0,0,0,41.5,46.451v.049A1.75,1.75,0,0,0,54,123.25H74a1.75,1.75,0,0,0,1.75-1.75v-.049A46.957,46.957,0,0,0,117.25,75V70.572h4.25a1.75,1.75,0,0,0,1.75-1.75v-9A1.749,1.749,0,0,0,121.5,58.072Zm-7.917,0H77.75V14.212A49.432,49.432,0,0,1,88.56,18.76V38.99a6.257,6.257,0,0,0,6.25,6.25,6.257,6.257,0,0,0,6.25-6.25V28.851A49.514,49.514,0,0,1,113.583,58.072ZM92.06,20.952a49.989,49.989,0,0,1,5.5,4.362V38.99a2.754,2.754,0,0,1-2.75,2.75,2.755,2.755,0,0,1-2.75-2.75ZM58,8.25h4.25V38.5a1.75,1.75,0,1,0,3.5,0V8.25H70a4.255,4.255,0,0,1,4.25,4.25V58.072H53.75V12.5A4.255,4.255,0,0,1,58,8.25Zm-27.56,17.1a50.022,50.022,0,0,1,5.5-4.388V38.99a2.757,2.757,0,0,1-2.75,2.75,2.754,2.754,0,0,1-2.75-2.75Zm-3.5,3.534v10.1a6.257,6.257,0,0,0,6.25,6.25,6.257,6.257,0,0,0,6.25-6.25V18.772a49.242,49.242,0,0,1,10.81-4.561V58.072H14.413A49.727,49.727,0,0,1,26.94,28.886ZM14.25,75V70.572h2.5V75a41.03,41.03,0,0,0,35.5,40.4v2.532A43.448,43.448,0,0,1,14.25,75Zm93.5-4.428V75a37.513,37.513,0,0,1-32.108,36.892c0-.01-.011-.017-.015-.027a1.738,1.738,0,0,0-.221-.4c-.02-.028-.043-.052-.065-.079a1.755,1.755,0,0,0-.3-.286c-.016-.012-.03-.026-.046-.038a1.758,1.758,0,0,0-.411-.206c-.035-.012-.069-.022-.1-.032A1.711,1.711,0,0,0,74,110.75H54a1.711,1.711,0,0,0-.482.076c-.035.01-.069.02-.1.032a1.758,1.758,0,0,0-.411.206c-.016.012-.03.026-.046.038a1.765,1.765,0,0,0-.3.287c-.021.026-.044.05-.064.078a1.717,1.717,0,0,0-.221.4c0,.009-.011.017-.015.027A37.513,37.513,0,0,1,20.25,75V70.572ZM72.25,119.75H55.75v-5.5h16.5ZM113.75,75a43.448,43.448,0,0,1-38,42.934V115.4A41.03,41.03,0,0,0,111.25,75V70.572h2.5Zm6-7.928H8.25v-5.5h111.5Z"/></g></svg>
