<?xml version="1.0" encoding="iso-8859-1"?>
<!-- Generator: Adobe Illustrator 19.0.0, SVG Export Plug-In . SVG Version: 6.00 Build 0)  -->
<svg version="1.1" id="Capa_1" xmlns="http://www.w3.org/2000/svg" xmlns:xlink="http://www.w3.org/1999/xlink" x="0px" y="0px"
	 viewBox="0 0 511.743 511.743" style="enable-background:new 0 0 511.743 511.743;" xml:space="preserve">
<g>
	<g>
		<path d="M155.922,95.952H3.999c-2.21,0-3.998,1.788-3.998,3.997c0,2.211,1.788,3.998,3.998,3.998h151.923
			c2.21,0,3.998-1.787,3.998-3.998C159.92,97.74,158.132,95.952,155.922,95.952z"/>
	</g>
</g>
<g>
	<g>
		<path d="M155.922,223.887H3.999c-2.21,0-3.998,1.789-3.998,3.998c0,2.21,1.788,3.998,3.998,3.998h151.923
			c2.21,0,3.998-1.788,3.998-3.998C159.92,225.676,158.132,223.887,155.922,223.887z"/>
	</g>
</g>
<g>
	<g>
		<path d="M163.918,79.96c-6.614,0-11.994,5.38-11.994,11.994c0,2.21,1.788,3.998,3.998,3.998c2.21,0,3.998-1.788,3.998-3.998
			c0-2.202,1.792-3.998,3.998-3.998c2.21,0,3.998-1.788,3.998-3.998C167.916,81.748,166.128,79.96,163.918,79.96z"/>
	</g>
</g>
<g>
	<g>
		<path d="M155.922,87.956c-2.21,0-3.998,1.788-3.998,3.998v23.987c0,2.21,1.788,3.998,3.998,3.998c2.21,0,3.998-1.788,3.998-3.998
			V91.954C159.92,89.744,158.132,87.956,155.922,87.956z"/>
	</g>
</g>
<g>
	<g>
		<path d="M187.906,79.96c-2.21,0-3.998,1.788-3.998,3.998c0,2.21,1.789,3.998,3.998,3.998c2.206,0,3.998,1.796,3.998,3.998
			c0,2.21,1.788,3.998,3.998,3.998c2.21,0,3.998-1.788,3.998-3.998C199.9,85.34,194.52,79.96,187.906,79.96z"/>
	</g>
</g>
<g>
	<g>
		<path d="M195.902,87.956c-2.21,0-3.998,1.788-3.998,3.998v143.927c0,2.21,1.788,3.998,3.998,3.998c2.21,0,3.998-1.788,3.998-3.998
			V91.954C199.9,89.744,198.111,87.956,195.902,87.956z"/>
	</g>
</g>
<g>
	<g>
		<path d="M155.922,207.896c-2.21,0-3.998,1.788-3.998,3.998v23.987c0,2.21,1.788,3.998,3.998,3.998c2.21,0,3.998-1.788,3.998-3.998
			v-23.987C159.92,209.684,158.132,207.896,155.922,207.896z"/>
	</g>
</g>
<g>
	<g>
		<path d="M139.931,111.943H11.995c-2.21,0-3.998,1.789-3.998,3.998c0,2.21,1.789,3.998,3.998,3.998h127.936
			c2.209,0,3.997-1.788,3.998-3.998C143.929,113.732,142.14,111.943,139.931,111.943z"/>
	</g>
</g>
<g>
	<g>
		<path d="M211.894,111.943c-2.21,0-3.998,1.789-3.998,3.998c0,2.21,1.788,3.998,3.998,3.998
			c72.745,0,131.934,59.19,131.934,131.934c0,2.21,1.788,3.998,3.998,3.998c2.21,0,3.998-1.788,3.998-3.998
			C351.824,174.716,289.051,111.943,211.894,111.943z"/>
	</g>
</g>
<g>
	<g>
		<path d="M211.894,207.88c-2.21,0-3.998,1.788-3.998,3.998c0,2.21,1.788,3.998,3.998,3.998c19.842,0,35.982,16.139,35.982,35.981
			c0,2.21,1.789,3.998,3.998,3.998c2.21,0,3.998-1.788,3.998-3.997C255.872,227.611,236.144,207.88,211.894,207.88z"/>
	</g>
</g>
<g>
	<g>
		<g>
			<path d="M326.681,235.381c-0.312-2.185-2.342-3.685-4.529-3.396c-2.187,0.312-3.701,2.334-3.389,4.521
				c0.718,5.052,1.077,10.221,1.077,15.367c0,2.21,1.789,3.998,3.998,3.998c2.21,0,3.998-1.788,3.998-3.998
				C327.836,246.353,327.446,240.809,326.681,235.381z"/>
			<path d="M320.465,224.161c2.116-0.616,3.334-2.834,2.718-4.958c-14.353-49.031-60.111-83.271-111.289-83.271
				c-2.21,0-3.998,1.788-3.998,3.998c0,2.21,1.788,3.998,3.998,3.998c47.649,0,90.252,31.874,103.604,77.523
				c0.516,1.741,2.11,2.873,3.843,2.873C319.715,224.324,320.09,224.269,320.465,224.161z"/>
		</g>
	</g>
</g>
<g>
	<g>
		<g>
			<path d="M280.509,219.211c-9.894-20.787-28.377-35.794-50.702-41.183c-2.128-0.469-4.303,0.805-4.822,2.952
				c-0.519,2.147,0.801,4.302,2.948,4.825c19.966,4.819,36.498,18.249,45.352,36.841c0.687,1.436,2.124,2.28,3.615,2.28
				c0.571,0,1.164-0.125,1.712-0.39C280.611,223.592,281.453,221.202,280.509,219.211z"/>
			<path d="M213.128,175.919l-1.234-0.008c-2.21,0-3.998,1.788-3.998,3.998c0,2.21,1.788,3.998,3.998,3.998l1.07,0.008
				c0.028,0,0.055,0,0.082,0c2.171,0,3.951-1.733,3.998-3.92C217.086,177.793,215.333,175.966,213.128,175.919z"/>
			<path d="M286.013,235.14c-0.484-2.147-2.632-3.468-4.779-3.03c-2.154,0.484-3.513,2.624-3.029,4.779
				c1.1,4.887,1.655,9.924,1.655,14.984c0,2.21,1.788,3.998,3.998,3.998s3.998-1.788,3.998-3.998
				C287.856,246.228,287.231,240.598,286.013,235.14z"/>
		</g>
	</g>
</g>
<g>
	<g>
		<g>
			<path d="M251.874,247.86c-2.209,0-3.998,1.788-3.998,3.998v15.992c0,2.209,1.789,3.998,3.998,3.998
				c2.21,0,3.998-1.789,3.998-3.998v-15.992C255.872,249.648,254.084,247.86,251.874,247.86z"/>
			<path d="M251.874,279.844c-2.209,0-3.998,1.788-3.998,3.998v55.986c0,2.211,1.789,3.998,3.998,3.998
				c2.21,0,3.998-1.787,3.998-3.998v-55.986C255.872,281.632,254.084,279.844,251.874,279.844z"/>
		</g>
	</g>
</g>
<g>
	<g>
		<path d="M347.826,247.875c-2.21,0-3.998,1.788-3.998,3.998v89.291c0,2.21,1.788,3.998,3.998,3.998c2.21,0,3.998-1.788,3.998-3.998
			v-89.291C351.824,249.663,350.036,247.875,347.826,247.875z"/>
	</g>
</g>
<g>
	<g>
		<g>
			<path d="M323.838,279.859c-2.209,0-3.998,1.787-3.998,3.998v57.307c0,2.21,1.789,3.998,3.998,3.998
				c2.21,0,3.998-1.788,3.998-3.998v-57.307C327.836,281.646,326.048,279.859,323.838,279.859z"/>
			<path d="M323.838,247.875c-2.209,0-3.998,1.788-3.998,3.998v15.992c0,2.209,1.789,3.998,3.998,3.998
				c2.21,0,3.998-1.789,3.998-3.998v-15.992C327.836,249.663,326.048,247.875,323.838,247.875z"/>
		</g>
	</g>
</g>
<g>
	<g>
		<path d="M283.858,247.875c-2.21,0-3.998,1.788-3.998,3.998v87.955c0,2.211,1.788,3.998,3.998,3.998s3.998-1.787,3.998-3.998
			v-87.955C287.856,249.663,286.068,247.875,283.858,247.875z"/>
	</g>
</g>
<g>
	<g>
		<path d="M294.68,416.962c-1.562-1.562-4.092-1.562-5.654,0l-5.169,5.169l-5.169-5.169c-1.562-1.562-4.092-1.562-5.654,0
			l-5.169,5.169l-5.169-5.169c-1.561-1.562-4.091-1.562-5.653,0l-5.17,5.169l-5.169-5.169c-1.561-1.562-4.091-1.562-5.653,0
			l-5.169,5.169l-5.169-5.169c-1.562-1.562-4.091-1.562-5.653,0l-5.169,5.169l-5.169-5.169c-1.562-1.562-4.091-1.562-5.653,0
			l-5.17,5.169l-5.169-5.169c-1.561-1.562-4.091-1.562-5.653,0l-5.169,5.169l-5.169-5.169c-1.561-1.562-4.091-1.562-5.653,0
			c-1.562,1.561-1.562,4.091,0,5.653l7.996,7.996c1.561,1.562,4.091,1.562,5.653,0l5.169-5.17l5.169,5.17
			c1.561,1.562,4.091,1.562,5.653,0l5.169-5.17l5.169,5.17c1.562,1.562,4.091,1.562,5.653,0l5.169-5.17l5.169,5.17
			c1.562,1.562,4.091,1.562,5.653,0l5.17-5.17l5.169,5.17c1.561,1.562,4.091,1.562,5.653,0l5.17-5.17l5.169,5.17
			c1.561,1.562,4.091,1.562,5.653,0l5.169-5.17l5.169,5.17c0.781,0.78,1.805,1.171,2.827,1.171c1.023,0,2.046-0.39,2.827-1.171
			l7.996-7.996C296.242,421.053,296.242,418.524,294.68,416.962z"/>
	</g>
</g>
<g>
	<g>
		<path d="M454.6,392.974c-1.561-1.562-4.091-1.562-5.653,0l-5.17,5.169l-5.169-5.169c-1.561-1.562-4.091-1.562-5.653,0l-5.17,5.169
			l-5.169-5.169c-1.561-1.562-4.091-1.562-5.653,0l-5.169,5.169l-5.169-5.169c-1.562-1.562-4.092-1.562-5.654,0l-5.169,5.169
			l-5.169-5.169c-1.562-1.562-4.091-1.561-5.653,0s-1.562,4.091,0,5.653l7.995,7.996c1.562,1.562,4.092,1.562,5.654,0l5.169-5.169
			l5.169,5.169c1.562,1.562,4.091,1.562,5.653,0l5.17-5.169l5.169,5.169c1.561,1.562,4.091,1.562,5.653,0l5.169-5.169l5.17,5.169
			c0.78,0.781,1.804,1.171,2.826,1.171c1.024,0,2.046-0.39,2.827-1.171l7.996-7.996C456.162,397.066,456.161,394.536,454.6,392.974z
			"/>
	</g>
</g>
<g>
	<g>
		<path d="M494.579,360.998l-7.996-7.996c-1.499-1.5-4.154-1.5-5.653,0l-5.161,5.169l-5.17-5.169c-1.561-1.562-4.091-1.562-5.653,0
			l-5.177,5.169l-5.169-5.169c-1.499-1.5-4.154-1.5-5.653,0l-5.162,5.169l-5.169-5.169c-1.561-1.562-4.091-1.562-5.653,0
			l-5.178,5.169l-5.169-5.169c-1.499-1.5-4.154-1.5-5.653,0l-5.169,5.169l-5.169-5.169c-1.562-1.562-4.092-1.562-5.654,0
			l-5.169,5.169l-5.169-5.169c-1.5-1.5-4.154-1.5-5.653,0l-5.17,5.169l-5.169-5.169c-0.75-0.75-1.764-1.172-2.826-1.172
			c-1.062,0-2.078,0.422-2.827,1.172l-5.161,5.169l-5.17-5.169c-1.561-1.562-4.091-1.562-5.653,0l-5.169,5.169l-5.178-5.169
			c-0.749-0.75-1.764-1.172-2.826-1.172c-1.062,0-2.077,0.422-2.826,1.172l-5.162,5.169l-5.169-5.169
			c-1.561-1.562-4.091-1.562-5.653,0l-5.17,5.169l-5.169-5.169c-1.561-1.562-4.091-1.562-5.653,0l-5.177,5.169l-5.169-5.169
			c-1.562-1.562-4.092-1.562-5.654,0l-5.169,5.169l-5.161-5.169c-0.75-0.75-1.765-1.172-2.827-1.172
			c-1.061,0-2.077,0.422-2.827,1.172l-5.169,5.169l-5.169-5.169c-1.561-1.562-4.091-1.562-5.653,0l-5.178,5.169l-5.169-5.169
			c-1.561-1.562-4.091-1.562-5.653,0l-5.169,5.169l-5.169-5.169c-1.562-1.562-4.091-1.562-5.653,0l-5.169,5.169l-5.169-5.169
			c-1.562-1.562-4.091-1.562-5.653,0l-5.17,5.169l-5.169-5.169c-1.561-1.562-4.091-1.562-5.653,0l-5.169,5.169l-5.169-5.169
			c-1.561-1.562-4.091-1.562-5.653,0l-5.169,5.169l-5.169-5.169c-1.562-1.562-4.091-1.562-5.653,0l-5.169,5.169l-5.169-5.169
			c-1.561-1.562-4.091-1.562-5.653,0l-5.169,5.169l-5.169-5.169c-1.561-1.562-4.091-1.562-5.653,0l-5.169,5.169l-5.17-5.169
			c-1.561-1.562-4.091-1.562-5.653,0l-5.169,5.169l-5.169-5.169c-1.562-1.562-4.092-1.562-5.654,0l-5.169,5.169l-5.169-5.169
			c-1.561-1.562-4.091-1.562-5.653,0l-5.169,5.169l-5.169-5.169c-1.561-1.562-4.091-1.562-5.653,0l-5.169,5.169l-5.169-5.169
			c-1.562-1.562-4.091-1.562-5.653,0l-5.169,5.169l-5.169-5.169c-1.562-1.562-4.091-1.562-5.653,0l-7.996,7.996
			c-1.562,1.561-1.562,4.091,0,5.653c1.561,1.562,4.091,1.562,5.653,0l5.169-5.17l5.169,5.17c1.562,1.562,4.091,1.562,5.653,0
			l5.169-5.17l5.169,5.17c1.562,1.562,4.091,1.562,5.653,0l5.17-5.17l5.169,5.17c1.561,1.562,4.091,1.562,5.653,0l5.169-5.17
			l5.17,5.17c1.561,1.562,4.091,1.562,5.653,0l5.169-5.17l5.169,5.17c1.561,1.562,4.091,1.562,5.653,0l5.169-5.17l5.169,5.17
			c1.561,1.562,4.091,1.562,5.653,0l5.169-5.17l5.169,5.17c1.561,1.562,4.091,1.562,5.653,0l5.169-5.17l5.169,5.17
			c1.562,1.562,4.092,1.562,5.654,0l5.169-5.17l5.169,5.17c1.562,1.562,4.092,1.562,5.654,0l5.169-5.17l5.169,5.17
			c1.561,1.562,4.091,1.562,5.653,0l5.169-5.17l5.169,5.17c1.561,1.562,4.091,1.562,5.653,0l5.169-5.17l5.169,5.17
			c1.562,1.562,4.091,1.562,5.653,0l5.169-5.17l5.169,5.17c1.562,1.562,4.091,1.562,5.653,0l5.17-5.17l5.169,5.17
			c1.561,1.562,4.091,1.562,5.653,0l5.178-5.17l5.169,5.17c1.561,1.562,4.091,1.562,5.653,0l5.169-5.17l5.161,5.17
			c0.75,0.749,1.765,1.171,2.827,1.171c1.061,0,2.077-0.422,2.827-1.171l5.169-5.17l5.169,5.17c1.561,1.562,4.091,1.562,5.653,0
			l5.177-5.17l5.17,5.17c1.561,1.562,4.091,1.562,5.653,0l5.169-5.17l5.17,5.17c1.507,1.499,4.162,1.499,5.653,0l5.161-5.17
			l5.177,5.17c1.561,1.562,4.091,1.562,5.653,0l5.17-5.17l5.169,5.17c1.507,1.499,4.162,1.499,5.653,0l5.162-5.17l5.177,5.17
			c0.749,0.749,1.772,1.171,2.826,1.171c1.062,0,2.077-0.422,2.827-1.171l5.161-5.17l5.169,5.17c1.562,1.562,4.092,1.562,5.654,0
			l5.169-5.17l5.177,5.17c0.75,0.749,1.772,1.171,2.827,1.171c1.061,0,2.077-0.422,2.826-1.171l5.162-5.17l5.169,5.17
			c1.561,1.562,4.091,1.562,5.653,0l5.177-5.17l5.17,5.17c1.507,1.499,4.162,1.499,5.653,0l5.161-5.17l5.17,5.17
			c1.561,1.562,4.09,1.562,5.652,0l5.178-5.17l5.169,5.17c1.507,1.499,4.162,1.499,5.653,0l5.162-5.17l5.169,5.17
			c0.78,0.78,1.804,1.171,2.827,1.171c1.022,0,2.045-0.39,2.825-1.171C496.141,365.09,496.141,362.56,494.579,360.998z"/>
	</g>
</g>
<g>
	<g>
		<path d="M502.576,352.994c-1.561-1.562-4.091-1.562-5.653,0l-7.996,8.004c-1.562,1.561-1.562,4.091,0,5.653
			c0.78,0.78,1.804,1.171,2.827,1.171c1.022,0,2.045-0.39,2.826-1.171l7.996-8.004C504.138,357.086,504.138,354.556,502.576,352.994
			z"/>
	</g>
</g>
<g>
	<g>
		<path d="M510.572,360.998l-7.996-8.004c-1.561-1.562-4.091-1.562-5.653,0c-1.562,1.561-1.562,4.091,0,5.653l7.996,8.004
			c0.78,0.78,1.804,1.171,2.826,1.171c1.023,0,2.046-0.39,2.827-1.171C512.133,365.09,512.133,362.56,510.572,360.998z"/>
	</g>
</g>
<g>
	<g>
		<path d="M30.814,360.998l-7.996-7.996c-1.561-1.562-4.091-1.562-5.653,0c-1.562,1.561-1.562,4.091,0,5.653l7.996,7.996
			c0.781,0.78,1.804,1.171,2.826,1.171c1.023,0,2.046-0.39,2.827-1.171C32.376,365.09,32.376,362.56,30.814,360.998z"/>
	</g>
</g>
<g>
	<g>
		<path d="M22.817,353.002c-1.561-1.562-4.091-1.562-5.653,0l-7.996,7.988c-1.562,1.561-1.562,4.091,0,5.653
			c0.782,0.78,1.804,1.171,2.827,1.171s2.046-0.39,2.826-1.171l7.996-7.988C24.379,357.094,24.379,354.564,22.817,353.002z"/>
	</g>
</g>
<g>
	<g>
		<path d="M14.82,360.99l-7.996-7.988c-1.561-1.562-4.091-1.562-5.653,0c-1.562,1.561-1.562,4.091,0,5.653l7.996,7.988
			c0.782,0.78,1.804,1.171,2.827,1.171s2.046-0.39,2.826-1.171C16.383,365.082,16.383,362.552,14.82,360.99z"/>
	</g>
</g>
<g>
	<g>
		<path d="M187.906,79.96h-23.988c-2.21,0-3.998,1.788-3.998,3.998c0,2.21,1.788,3.998,3.998,3.998h23.988
			c2.21,0,3.998-1.788,3.998-3.998C191.904,81.748,190.116,79.96,187.906,79.96z"/>
	</g>
</g>
<g>
	<g>
		<path d="M195.902,231.883c-2.21,0-3.998,1.789-3.998,3.998c0,2.202-1.792,3.998-3.998,3.998c-2.21,0-3.998,1.788-3.998,3.998
			s1.789,3.998,3.998,3.998c6.614,0,11.994-5.38,11.994-11.994C199.9,233.672,198.111,231.883,195.902,231.883z"/>
	</g>
</g>
<g>
	<g>
		<path d="M163.918,239.879c-2.206,0-3.998-1.796-3.998-3.998c0-2.209-1.788-3.998-3.998-3.998c-2.21,0-3.998,1.789-3.998,3.998
			c0,6.614,5.38,11.994,11.994,11.994c2.21,0,3.998-1.788,3.998-3.998S166.128,239.879,163.918,239.879z"/>
	</g>
</g>
<g>
	<g>
		<path d="M187.906,239.879h-23.988c-2.21,0-3.998,1.788-3.998,3.998s1.788,3.998,3.998,3.998h23.988
			c2.21,0,3.998-1.788,3.998-3.998S190.116,239.879,187.906,239.879z"/>
	</g>
</g>
<g>
</g>
<g>
</g>
<g>
</g>
<g>
</g>
<g>
</g>
<g>
</g>
<g>
</g>
<g>
</g>
<g>
</g>
<g>
</g>
<g>
</g>
<g>
</g>
<g>
</g>
<g>
</g>
<g>
</g>
</svg>
